<svg width="50" height="50" viewBox="0 0 50 50" fill="none" xmlns="http://www.w3.org/2000/svg">
<rect width="50" height="50" rx="25" fill="#328476"/>
<path d="M28.5 30.5L21.5 30.5" stroke="white" stroke-width="1.5" stroke-linecap="round" stroke-linejoin="round"/>
<path d="M28.5 26.5L25.5 26.5" stroke="white" stroke-width="1.5" stroke-linecap="round" stroke-linejoin="round"/>
<path d="M33 27.5C33 31.2712 33 33.1569 31.7552 34.3284C30.5104 35.5 28.5069 35.5 24.5 35.5H23.7273C20.4661 35.5 18.8355 35.5 17.7031 34.7022C17.3786 34.4736 17.0906 34.2025 16.8477 33.8971C16 32.8313 16 31.2966 16 28.2273V25.6818C16 22.7186 16 21.2371 16.4689 20.0538C17.2228 18.1514 18.8171 16.6509 20.8384 15.9414C22.0956 15.5 23.6698 15.5 26.8182 15.5C28.6173 15.5 29.5168 15.5 30.2352 15.7522C31.3902 16.1576 32.3012 17.0151 32.732 18.1021C33 18.7783 33 19.6249 33 21.3182V27.5Z" stroke="white" stroke-width="1.5" stroke-linejoin="round"/>
<path d="M16 25.5C16 23.6591 17.4924 22.1667 19.3333 22.1667C19.9991 22.1667 20.784 22.2833 21.4314 22.1099C22.0065 21.9558 22.4558 21.5065 22.6099 20.9314C22.7833 20.284 22.6667 19.4991 22.6667 18.8333C22.6667 16.9924 24.1591 15.5 26 15.5" stroke="white" stroke-width="1.5" stroke-linecap="round" stroke-linejoin="round"/>
</svg>
