<svg width="50" height="50" viewBox="0 0 50 50" fill="none" xmlns="http://www.w3.org/2000/svg">
<rect x="0.1" y="0.1" width="49.8" height="49.8" rx="24.9" fill="#328476"/>
<rect x="0.1" y="0.1" width="49.8" height="49.8" rx="24.9" stroke="white" stroke-width="0.2"/>
<path d="M33.875 32.375C33.875 34.1009 32.4759 35.5 30.75 35.5C29.0241 35.5 27.625 34.1009 27.625 32.375C27.625 30.6491 29.0241 29.25 30.75 29.25C32.4759 29.25 33.875 30.6491 33.875 32.375Z" stroke="white" stroke-width="1.5"/>
<path d="M21.375 32.375C21.375 34.1009 19.9759 35.5 18.25 35.5C16.5241 35.5 15.125 34.1009 15.125 32.375C15.125 30.6491 16.5241 29.25 18.25 29.25C19.9759 29.25 21.375 30.6491 21.375 32.375Z" stroke="white" stroke-width="1.5"/>
<path d="M27.625 32.375H21.375M33.875 32.375H34.8289C35.1039 32.375 35.2414 32.375 35.3569 32.3606C36.2086 32.2544 36.8794 31.5836 36.9856 30.7319C37 30.6164 37 30.4789 37 30.2039V26.75C37 22.2627 33.3623 18.625 28.875 18.625M12 15.5H24.5C26.2678 15.5 27.1517 15.5 27.7008 16.0492C28.25 16.5983 28.25 17.4822 28.25 19.25V29.875M12 26.4375V29.25C12 30.4183 12 31.0024 12.2512 31.4375C12.4158 31.7225 12.6525 31.9592 12.9375 32.1238C13.3726 32.375 13.9567 32.375 15.125 32.375" stroke="white" stroke-width="1.5" stroke-linecap="round" stroke-linejoin="round"/>
<path d="M12 19.25H19.5M12 23H17" stroke="white" stroke-width="1.5" stroke-linecap="round" stroke-linejoin="round"/>
</svg>
