<svg width="110" height="26" viewBox="0 0 110 26" fill="none" xmlns="http://www.w3.org/2000/svg">
<path d="M27.9957 15.4977V24.7463C27.9957 25.3462 28.4957 25.4962 28.7456 25.4961H31.4952C32.495 25.4961 32.495 24.9962 32.495 24.7463V15.4977C32.695 13.098 34.5781 12.4981 35.4946 12.4981C38.0942 12.4981 38.9941 14.2479 38.9941 15.4977V24.7463C38.9941 25.3462 39.494 25.4962 39.744 25.4961H42.4935C43.0934 25.4961 43.2434 24.9962 43.2434 24.7463V15.4977C43.4934 12.7481 45.5764 12.4148 46.4929 12.4981C49.0925 12.4981 49.7424 14.4978 49.7424 15.4977V24.7463C49.7424 25.3462 50.2424 25.4962 50.4923 25.4961H53.4919C54.2418 25.4961 54.2418 24.9129 54.2418 24.7463V15.4977C53.8418 9.49857 49.2487 8.24876 46.9929 8.24876C44.2851 8.24877 42.2238 9.94567 41.2864 10.9522C41.2642 10.976 41.2262 10.972 41.2078 10.9452C39.6966 8.7408 36.7345 8.24876 35.4946 8.24876C29.8954 8.24876 28.1624 13.1647 27.9957 15.4977Z" fill="#FAF9F6"/>
<path d="M8.49884 15.7476V24.9962C8.49884 25.3961 8.99876 25.4961 9.24873 25.4961H12.2483C12.8482 25.4961 12.9982 25.1629 12.9982 24.9962V15.9976C13.2481 12.998 15.9144 12.4148 16.9976 12.4981C19.4972 12.4981 20.497 14.7478 20.497 15.9976V24.9962C20.497 25.3961 20.8303 25.4961 20.997 25.4961H23.9965C24.5964 25.4961 24.7464 25.1629 24.7464 24.9962V15.7476C24.5464 9.1486 18.8306 7.99878 15.9977 8.24874C9.79864 9.04862 8.41552 13.5813 8.49884 15.7476Z" fill="#FAF9F6"/>
<path d="M64.7437 15.7787V25.0273C64.7437 25.4272 65.2436 25.5272 65.4936 25.5272H68.4931C69.0931 25.5272 69.243 25.1939 69.243 25.0273V16.0286C69.493 13.0291 72.1593 12.4458 73.2424 12.5292C75.7421 12.5292 76.7419 14.7788 76.7419 16.0286V25.0273C76.7419 25.4272 77.0752 25.5272 77.2418 25.5272H80.2414C80.8413 25.5272 80.9913 25.1939 80.9913 25.0273V15.7787C80.7913 9.17967 75.0755 8.02984 72.2426 8.27981C66.0435 9.07968 64.6604 13.6123 64.7437 15.7787Z" fill="#FAF9F6"/>
<path d="M0.999878 24.7463V9.2486C0.999878 8.84866 1.33316 8.74867 1.4998 8.74867H4.74931C5.14925 8.74867 5.24924 9.08196 5.24924 9.2486V24.7463C5.24924 25.3462 4.74931 25.4961 4.49935 25.4961H1.74976C1.14986 25.4961 0.999878 24.9962 0.999878 24.7463Z" fill="#FAF9F6"/>
<path d="M57.4913 24.7463V9.2486C57.4913 8.84866 57.8246 8.74867 57.9913 8.74867H61.2408C61.6407 8.74867 61.7407 9.08196 61.7407 9.2486V24.7463C61.7407 25.3462 61.2408 25.4961 60.9908 25.4961H58.2412C57.6413 25.4961 57.4913 24.9962 57.4913 24.7463Z" fill="#FAF9F6"/>
<circle cx="3.24951" cy="3.24951" r="3.24951" fill="#328476"/>
<circle cx="59.491" cy="3.24951" r="3.24951" fill="#328476"/>
<circle cx="106.234" cy="22.7466" r="3.24951" fill="#328476"/>
<path d="M96.9854 2.49963V9.9985C95.5856 8.59871 93.0693 8.24876 91.9861 8.24876C84.9872 8.74869 83.3164 14.255 83.5374 17.4974C84.0666 25.2597 89.9801 26.0666 92.736 25.9961C99.7471 25.8166 101.151 20.247 101.235 17.4974V2.49963C101.235 1.49978 100.568 1.24982 100.235 1.24982H98.2352C97.2353 1.24982 96.9854 2.08302 96.9854 2.49963Z" fill="#FAF9F6"/>
<path d="M87.9867 13.498L89.9864 11.9982L92.4861 11.6482C94.2358 11.9982 94.8857 12.2482 96.3855 13.248C96.8021 14.0812 97.7353 15.8476 97.7353 16.2475C97.7353 17.6473 97.402 19.1638 97.2354 19.747C96.9854 20.0803 96.2355 20.9968 95.2357 21.9967C94.6357 22.3966 92.986 22.8299 92.2361 22.9965C91.7337 22.9052 90.8658 22.6586 89.9864 22.2239C89.2616 21.8656 88.5289 21.3794 87.9867 20.7469C87.5701 20.1636 86.8369 18.5972 86.637 16.9974C86.7536 16.2475 86.9869 14.9977 87.9867 13.498Z" fill="#191729"/>
<path d="M90.7362 13.248L92.486 11.6482M90.7362 13.248L92.486 14.7478M90.7362 13.248L89.9863 14.9977M90.7362 13.248L87.9866 13.498M90.7362 13.248L89.9863 11.9982M92.486 11.6482V14.7478M92.486 11.6482L94.7356 14.7478M97.7352 16.2475C97.7352 15.8476 96.802 14.0812 96.3854 13.248C94.8856 12.2482 94.2357 11.9982 92.486 11.6482L89.9863 11.9982L87.9866 13.498C86.9868 14.9977 86.7535 16.2475 86.6368 16.9974C86.8368 18.5972 87.57 20.1636 87.9866 20.7469C88.5288 21.3794 89.2615 21.8656 89.9863 22.2239C90.8657 22.6586 91.7336 22.9052 92.236 22.9965C92.9859 22.8299 94.6356 22.3966 95.2355 21.9967C96.2354 20.9968 96.9853 20.0803 97.2352 19.747C97.4019 19.1638 97.7352 17.6473 97.7352 16.2475ZM92.486 11.6482L95.9854 13.6765M92.486 14.7478L89.9863 14.9977M92.486 14.7478H94.7356M92.486 14.7478L92.9859 16.7475M89.9863 14.9977L92.9859 16.7475M89.9863 14.9977L87.9866 13.498M89.9863 14.9977L89.7364 18.2472M89.9863 14.9977L88.2366 15.9976M94.7356 14.7478L92.9859 16.7475M96.1937 13.498L95.9854 13.6765L94.7356 14.7478M94.7356 14.7478L97.7352 16.2475M94.7356 14.7478L95.9854 17.7473M92.9859 16.7475L95.9854 17.7473M92.9859 16.7475L93.9857 18.7472M92.9859 16.7475L92.236 19.4971M92.9859 16.7475L89.7364 18.2472M87.9866 13.498L88.2366 15.9976M96.3854 13.248L96.1937 13.498M97.7352 16.2475L95.9854 17.7473M95.9854 17.7473L96.1937 13.498M95.9854 17.7473L97.2352 19.747M95.9854 17.7473L94.2357 20.4969M95.9854 17.7473L93.9857 18.7472M97.2352 19.747L94.2357 20.4969M95.2355 21.9967L94.2357 20.4969M94.2357 20.4969L93.9857 18.7472M94.2357 20.4969L92.236 19.4971M94.2357 20.4969L92.236 22.9965M93.9857 18.7472L92.236 19.4971M92.236 19.4971L89.7364 18.2472M92.236 19.4971V22.9965M92.236 19.4971L90.7362 21.2468M89.7364 18.2472L87.9866 20.7469M89.7364 18.2472L90.7362 21.2468M89.7364 18.2472L88.2366 15.9976M89.7364 18.2472L88.1116 17.6223M92.236 22.9965L90.7362 21.2468M90.7362 21.2468L89.9863 22.2239M90.7362 21.2468L87.9866 20.7469M87.9866 20.7469L88.1116 17.6223M86.6368 16.9974L88.1116 17.6223M86.6368 16.9974L88.2366 15.9976" stroke="#FAF9F6" stroke-width="0.5"/>
</svg>
