<svg width="314" height="376" viewBox="0 0 314 376" fill="none" xmlns="http://www.w3.org/2000/svg">
<path d="M4.3638 173.665C35.2285 106.175 95.9483 7.15687 95.9483 7.15687C104.006 -2.40389 114.077 -0.362551 118.105 1.85321C130.513 7.27851 129.989 19.4669 128.176 24.8829L43.9771 177.963C30.978 201.597 40.3507 212.116 46.6619 214.421C62.6827 220.273 73.6334 204.098 78.8901 197.166C94.8765 176.087 126.04 115.444 154.628 84.9079C181.475 56.2319 204.889 69.6798 213.981 75.5766C251.069 99.6306 239.178 141.933 228.347 163.935C198.535 224.496 204.872 233.228 211.091 236.649C224.519 244.034 249.971 200.747 263.261 183.138C294.708 141.47 329.552 148.472 342.488 156.753C380.001 180.768 367.463 219.464 358.6 235.578L284.742 369.859C274.066 379.728 265.561 375.05 261.981 373.081C252.312 367.763 251.641 356.9 252.514 352.133L326.373 217.852C335.934 197.924 328.79 191.196 324.762 188.981C315.094 183.663 302.416 195.441 296.831 201.603C290.837 208.216 269.235 234.815 259.365 247.459C233.528 276.625 204.599 273.889 193.364 268.876C177.143 262.752 170.537 244.66 169.261 236.379C165.502 220.319 186.823 170.218 197.463 146.947C209.233 121.206 206.256 111.687 196.255 107.804C184.475 103.23 171.127 121.952 166.578 129.96C145.375 167.287 113.532 216.242 97.3532 233.557C67.4424 265.571 33.5685 250.946 21.6176 240.874C-5.99039 217.293 -1.38826 186.243 4.3638 173.665Z" fill="url(#paint0_linear_80_315)"/>
<defs>
<linearGradient id="paint0_linear_80_315" x1="251.364" y1="75.0413" x2="127.573" y2="300.105" gradientUnits="userSpaceOnUse">
<stop stop-color="#43AE9B"/>
<stop offset="1" stop-color="#328476"/>
</linearGradient>
</defs>
</svg>
