<svg width="190" height="90" viewBox="0 0 190 90" fill="none" xmlns="http://www.w3.org/2000/svg">
<path d="M3.2889 83.5521C6.62266 78.3369 10.7113 73.3106 15.4504 68.6019C18.4183 65.5609 21.8505 62.2586 25.6148 58.8056C29.6241 55.0965 33.886 51.5486 38.3695 48.1875C40.7895 46.3833 43.3167 44.6788 45.9347 43.0852C48.636 41.4094 51.4596 39.8952 54.3716 38.5606C57.3445 37.1692 60.4221 36.0269 63.5402 35.1577C66.6863 34.2459 69.8581 33.6569 72.9683 33.4067L73.4804 33.3765C73.397 33.5155 73.2786 33.6577 73.1801 33.8036C69.4881 39.3223 67.8975 45.1725 68.6476 50.4741C69.0671 53.1514 70.2192 55.5748 72.0336 57.5966C73.9319 59.7159 76.6474 61.2428 79.921 62.0313C81.6155 62.494 83.4726 62.7094 85.4223 62.6695C87.6031 62.6379 89.8874 62.1977 92.1017 61.3823C94.2409 60.5517 96.2553 59.4069 98.0134 58.023C99.7714 56.6391 101.233 55.0472 102.304 53.3513C104.241 50.2786 104.903 47.0485 104.174 44.2225C103.527 41.6271 102.181 39.3083 100.213 37.3987C98.3045 35.5024 95.9405 33.9445 93.2049 32.7799C89.7843 31.3338 85.9004 30.4504 81.72 30.1677C82.4083 29.4536 83.1448 28.7645 83.9247 28.1052C88.4988 24.1955 93.8623 20.9278 99.6272 18.5384C104.993 16.2846 110.543 14.618 116.088 13.5954C120.932 12.683 125.734 12.2311 130.389 12.2496C134.319 12.3407 138.128 12.7269 141.772 13.4036C147.504 14.4103 152.896 15.965 157.849 18.04C161.195 19.4066 164.327 21.0105 167.22 22.8379C169.525 24.3201 171.105 25.4741 172.294 26.4008C173.348 27.1864 174.007 27.7342 174.547 28.1342L173.316 28.0983C169.81 27.9959 166.619 27.9524 163.909 27.9692C158.492 28.0133 154.966 28.2358 154.747 28.765C154.528 29.2942 157.509 29.888 162.594 30.4873C165.141 30.7975 168.191 31.0948 171.612 31.3747L172.91 31.4811C173.466 31.532 174.04 31.542 174.627 31.511C175.004 31.486 175.388 31.4346 175.773 31.3573C176.262 31.2598 176.751 31.1102 177.225 30.9129C178.202 30.5067 179.072 29.8903 179.709 29.1536C180.458 28.1906 181.003 27.1712 181.316 26.1489L182.279 23.7778C187.329 10.6139 190.46 -0.0478957 189.213 -4.55403e-05C187.965 0.0478127 182.842 10.7541 177.777 23.9248L177.131 25.6593C176.751 25.0944 176.315 24.5615 175.827 24.064C174.42 22.5473 172.835 21.154 171.084 19.8961C168.238 17.7947 165.071 15.9696 161.623 14.4438C156.499 12.1186 150.864 10.3783 144.832 9.25901C140.871 8.50847 136.722 8.08508 132.439 7.99435C127.304 7.94951 121.998 8.43808 116.646 9.44866C110.466 10.5866 104.281 12.4517 98.3064 14.9789C91.6435 17.7589 85.4547 21.5614 80.1955 26.1065C78.6748 27.4124 77.287 28.8047 76.0534 30.262C75.3624 30.2975 74.6713 30.333 73.9792 30.407C70.4842 30.7277 66.9276 31.4236 63.405 32.4758C59.9881 33.486 56.6233 34.7884 53.3786 36.3566C50.2727 37.8329 47.2682 39.5012 44.4021 41.341C41.6966 43.0392 39.0899 44.8515 36.5992 46.7661C32.0735 50.2633 27.7961 53.9581 23.8019 57.8207C20.0571 61.3997 16.7171 64.7739 13.7818 67.9434C9.1323 72.8303 5.25636 78.0527 2.27948 83.4414C1.51319 84.8738 0.875144 86.3214 0.370976 87.7714C0.0641966 88.7576 -0.0688875 89.2351 0.0345123 89.2641C0.137912 89.293 1.07307 87.1872 3.31909 83.5384L3.2889 83.5521ZM78.1101 34.6252C78.3803 34.2118 78.69 33.8057 78.9997 33.3997C83.0612 33.636 86.8173 34.5026 90.0792 35.9558C92.4562 37.0225 94.5026 38.4298 96.1474 40.129C97.786 41.7796 98.8901 43.7745 99.3962 45.9991C99.8929 48.1076 99.363 50.5029 97.8979 52.7722C97.1933 53.89 96.2309 54.9396 95.0736 55.8526C93.9162 56.7656 92.5898 57.5215 91.1808 58.0711C88.2797 58.9779 85.3488 59.0554 82.959 58.2885C80.383 57.6337 78.2572 56.3964 76.7845 54.6945C75.3428 52.9923 74.4479 50.9692 74.1535 48.7463C73.8401 46.5194 74.0213 44.1609 74.69 41.765C75.3413 39.363 76.4874 36.9537 78.0799 34.6389" fill="#161326"/>
</svg>
