<svg width="18" height="25" viewBox="0 0 18 25" fill="none" xmlns="http://www.w3.org/2000/svg">
<path d="M13.4667 1.24981V8.74868C12.0669 7.34889 9.55063 6.99894 8.46746 6.99894C1.46852 7.49887 -0.202317 13.0052 0.0187355 16.2475C0.547945 24.0099 6.4614 24.8168 9.21735 24.7463C16.2284 24.5668 17.6327 18.9971 17.7161 16.2475V1.24981C17.7161 0.249962 17.0495 0 16.7162 0H14.7165C13.7167 0 13.4667 0.833208 13.4667 1.24981Z" fill="#FAF9F6"/>
<path d="M4.46807 12.2481L6.46777 10.7484L8.96739 10.3984C10.7171 10.7484 11.367 10.9983 12.8668 11.9982C13.2834 12.8314 14.2166 14.5978 14.2166 14.9977C14.2166 16.3975 13.8833 17.914 13.7167 18.4972C13.4667 18.8305 12.7168 19.747 11.717 20.7469C11.1171 21.1468 9.46732 21.5801 8.71743 21.7467C8.21504 21.6554 7.34713 21.4088 6.46777 20.9741C5.74288 20.6157 5.01021 20.1295 4.46807 19.4971C4.05147 18.9138 3.31824 17.3474 3.11827 15.7476C3.23492 14.9977 3.46822 13.7479 4.46807 12.2481Z" fill="#191729"/>
</svg>
